<svg height="512" viewBox="0 0 60 44" width="512" xmlns="http://www.w3.org/2000/svg"><g id="Page-1" fill="none" fill-rule="evenodd"><g id="001---Loyalty-Card" fill-rule="nonzero"><g id="Icons" transform="translate(1 1)"><rect id="Rectangle-path" fill="#e91e63" height="42" rx="4" width="58"/><path id="Shape" d="m54 0h-3c2.209139 0 4 1.790861 4 4v34c0 2.209139-1.790861 4-4 4h3c2.209139 0 4-1.790861 4-4v-34c0-2.209139-1.790861-4-4-4z" fill="#ad1457"/><g fill="#ff9801"><path id="Shape" d="m22 9c-.0008069.21470679-.0380003.4277237-.11.63-.3390337.9734209-1.3684806 1.5235998-2.3661794 1.2645837s-1.6295105-1.24048017-1.4522166-2.25589093c.177294-1.01541076 1.1043162-1.72469748 2.1307566-1.63029245 1.0264403.09440502 1.8085342.96088466 1.7976394 1.99159968z"/><path id="Shape" d="m31 6c-.0015353.70054458-.3694976 1.34922036-.97 1.71-.6322241.38669834-1.4277759.38669834-2.06 0-.8286941-.49788271-1.1826316-1.51724476-.8407984-2.42155177.3418332-.904307 1.2815693-1.43465307 2.2323957-1.25986685s1.6405187 1.0046629 1.6384027 1.97141862z"/><path id="Shape" d="m40 9c-.0032948 1.1032019-.8967981 1.9967052-2 2-.858799-.0035163-1.6194833-.5549118-1.89-1.37-.0719997-.2022763-.1091931-.41529321-.11-.63 0-1.1045695.8954305-2 2-2s2 .8954305 2 2z"/></g><path id="Shape" d="m37.45 10.92-1.45 5.08h-14l-1.45-5.08c.6325063-.1819522 1.1341383-.6648666 1.34-1.29l4.11 1.37 1.97-3.29c.6322241.38669834 1.4277759.38669834 2.06 0l1.97 3.29 4.11-1.37c.2058617.6251334.7074937 1.1080478 1.34 1.29z" fill="#ffdc00"/><path id="Shape" d="m36.11 9.63-2.472.824c.2295935.2179164.5080193.3777026.812.466l-1.45 5.08h3l1.45-5.08c-.6325063-.1819522-1.1341383-.6648666-1.34-1.29z" fill="#fec108"/><path id="Shape" d="m36 16v2c-.0032948 1.1032019-.8967981 1.9967052-2 2h-10c-1.1032019-.0032948-1.9967052-.8967981-2-2v-2z" fill="#ff9801"/><path id="Shape" d="m33 16v2c-.0032948 1.1032019-.8967981 1.9967052-2 2h3c1.1032019-.0032948 1.9967052-.8967981 2-2v-2z" fill="#f57c00"/><rect id="Rectangle-path" fill="#9e9e9e" height="4" rx="2" width="9" x="5" y="24"/><path id="Shape" d="m12 24h-3c1.1045695 0 2 .8954305 2 2s-.8954305 2-2 2h3c1.1045695 0 2-.8954305 2-2s-.8954305-2-2-2z" fill="#707070"/><rect id="Rectangle-path" fill="#9e9e9e" height="4" rx="2" width="9" x="18" y="24"/><path id="Shape" d="m25 24h-3c1.1045695 0 2 .8954305 2 2s-.8954305 2-2 2h3c1.1045695 0 2-.8954305 2-2s-.8954305-2-2-2z" fill="#707070"/><rect id="Rectangle-path" fill="#9e9e9e" height="4" rx="2" width="9" x="31" y="24"/><path id="Shape" d="m38 24h-3c1.1045695 0 2 .8954305 2 2s-.8954305 2-2 2h3c1.1045695 0 2-.8954305 2-2s-.8954305-2-2-2z" fill="#707070"/><rect id="Rectangle-path" fill="#9e9e9e" height="4" rx="2" width="9" x="44" y="24"/><path id="Shape" d="m51 24h-3c1.1045695 0 2 .8954305 2 2s-.8954305 2-2 2h3c1.1045695 0 2-.8954305 2-2s-.8954305-2-2-2z" fill="#707070"/></g><g id="Icons_copy" fill="#000"><path id="Shape" d="m55 0h-50c-2.76005315.00330612-4.99669388 2.23994685-5 5v34c.00330612 2.7600532 2.23994685 4.9966939 5 5h50c2.7600532-.0033061 4.9966939-2.2399468 5-5v-34c-.0033061-2.76005315-2.2399468-4.99669388-5-5zm3 39c0 1.6568542-1.3431458 3-3 3h-50c-1.65685425 0-3-1.3431458-3-3v-34c0-1.65685425 1.34314575-3 3-3h50c1.6568542 0 3 1.34314575 3 3z"/><path id="Shape" d="m39 7c-1.6328944.00298133-2.963522 1.31138731-2.994 2.944l-2.561.853-1.139-1.9c.4459388-.53178564.6914924-1.20298914.694-1.897 0-1.65685425-1.3431458-3-3-3s-3 1.34314575-3 3c.0029744.69332286.2484999 1.36374197.694 1.895l-1.139 1.9-2.561-.853c-.0230512-1.62761992-1.3398628-2.93990182-2.9675525-2.95734442s-2.9723209 1.26631883-3.0302466 2.89307099c-.0579256 1.62675213 1.1919912 3.00290063 2.8167991 3.10127343l1.187 4.16v1.861c0 1.6568542 1.3431458 3 3 3h10c1.6568542 0 3-1.3431458 3-3v-1.861l1.187-4.158c1.6195867-.0933941 2.8699287-1.4600836 2.8192319-3.08156853-.0506968-1.62148489-1.3839742-2.90739582-3.0062319-2.89943147zm-9-1c.5522847 0 1 .44771525 1 1s-.4477153 1-1 1-1-.44771525-1-1 .4477153-1 1-1zm-3.316 6.949c.4449215.148217.9330761-.032658 1.174-.435l1.542-2.575c.3958647.0813422.8041353.0813422 1.2 0l1.542 2.575c.2409239.402342.7290785.583217 1.174.435l3.331-1.111c.1753508.2286362.3828293.4307256.616.6l-1.017 3.562h-12.492l-1.017-3.563c.2331707-.1692744.4406492-.3713638.616-.6zm-6.684-2.949c0-.55228475.4477153-1 1-1s1 .44771525 1 1c0 .5522847-.4477153 1-1 1s-1-.4477153-1-1zm16 9c0 .5522847-.4477153 1-1 1h-10c-.5522847 0-1-.4477153-1-1v-1h12zm3-8c-.5522847 0-1-.4477153-1-1 0-.55228475.4477153-1 1-1s1 .44771525 1 1c0 .5522847-.4477153 1-1 1z"/><path id="Shape" d="m8 30h5c1.6568542 0 3-1.3431458 3-3s-1.3431458-3-3-3h-5c-1.65685425 0-3 1.3431458-3 3s1.34314575 3 3 3zm0-4h5c.5522847 0 1 .4477153 1 1s-.4477153 1-1 1h-5c-.55228475 0-1-.4477153-1-1s.44771525-1 1-1z"/><path id="Shape" d="m26 24h-5c-1.6568542 0-3 1.3431458-3 3s1.3431458 3 3 3h5c1.6568542 0 3-1.3431458 3-3s-1.3431458-3-3-3zm0 4h-5c-.5522847 0-1-.4477153-1-1s.4477153-1 1-1h5c.5522847 0 1 .4477153 1 1s-.4477153 1-1 1z"/><path id="Shape" d="m39 24h-5c-1.6568542 0-3 1.3431458-3 3s1.3431458 3 3 3h5c1.6568542 0 3-1.3431458 3-3s-1.3431458-3-3-3zm0 4h-5c-.5522847 0-1-.4477153-1-1s.4477153-1 1-1h5c.5522847 0 1 .4477153 1 1s-.4477153 1-1 1z"/><path id="Shape" d="m52 24h-5c-1.6568542 0-3 1.3431458-3 3s1.3431458 3 3 3h5c1.6568542 0 3-1.3431458 3-3s-1.3431458-3-3-3zm0 4h-5c-.5522847 0-1-.4477153-1-1s.4477153-1 1-1h5c.5522847 0 1 .4477153 1 1s-.4477153 1-1 1z"/><path id="Shape" d="m24 33h-18c-.55228475 0-1 .4477153-1 1s.44771525 1 1 1h18c.5522847 0 1-.4477153 1-1s-.4477153-1-1-1z"/><path id="Shape" d="m16 37h-10c-.55228475 0-1 .4477153-1 1s.44771525 1 1 1h10c.5522847 0 1-.4477153 1-1s-.4477153-1-1-1z"/></g></g></g></svg>